<mxfile host="app.diagrams.net" modified="2024-07-23T18:55:45.059Z" agent="Mozilla/5.0 (Windows NT 10.0; Win64; x64) AppleWebKit/537.36 (KHTML, like Gecko) Chrome/126.0.0.0 Safari/537.36" version="24.6.2" etag="tLCQt8qvO8ZHY9m0aa4u" type="github">
  <diagram name="Trang-1" id="E868uoG_R98yUx-c5AVo">
    <mxGraphModel>
      <root>
        <mxCell id="0" />
        <mxCell id="1" parent="0" />
      </root>
    </mxGraphModel>
  </diagram>
</mxfile>
